<?xml version="1.0" encoding="UTF-8"?>
<svg xmlns="http://www.w3.org/2000/svg" xmlns:xlink="http://www.w3.org/1999/xlink" width="30px" height="30px" viewBox="0 0 30 30" version="1.1">
<g id="surface1">
<path style=" stroke:none;fill-rule:nonzero;fill:rgb(0%,0%,0%);fill-opacity:1;" d="M 4.5 7.5 C 4.5 6.671875 5.171875 6 6 6 L 24 6 C 24.828125 6 25.5 6.671875 25.5 7.5 C 25.5 8.328125 24.828125 9 24 9 L 6 9 C 5.171875 9 4.5 8.328125 4.5 7.5 Z M 4.5 15 C 4.5 14.171875 5.171875 13.5 6 13.5 L 24 13.5 C 24.828125 13.5 25.5 14.171875 25.5 15 C 25.5 15.828125 24.828125 16.5 24 16.5 L 6 16.5 C 5.171875 16.5 4.5 15.828125 4.5 15 Z M 25.5 22.5 C 25.5 23.328125 24.828125 24 24 24 L 6 24 C 5.171875 24 4.5 23.328125 4.5 22.5 C 4.5 21.671875 5.171875 21 6 21 L 24 21 C 24.828125 21 25.5 21.671875 25.5 22.5 Z M 25.5 22.5 "/>
</g>
</svg>
